<svg xmlns="http://www.w3.org/2000/svg" width="449.05" height="512" viewBox="0 0 449.05 512">
  <path id="tik-tok_gray" data-name="tik-tok gray" d="M575,561c-11.34-1.67-22.85-2.59-34-5.13-63.07-14.4-112.3-69.19-120.17-133.19-10.5-85.38,47.32-162.34,132.6-176.48,16.94-2.8,39.12-2.74,49.92.23v83.75c-4.25-.81-8.24-1.75-12.28-2.32-47.64-6.77-88.57,29.81-87,77.72,1.23,37.83,31.7,69,70.52,72.21,37,3,72.46-23.88,79.26-60.51a108.151,108.151,0,0,0,1.52-19.37q.23-170.73.26-341.44c0-2.49.23-5,.36-7.47h83c1.82,70.89,54.59,125.11,124.89,128.09,4.32.18,4.78,1.9,4.77,5.42-.11,24.17-.06,48.33-.06,72.5v5.34c-48.16-.21-90.71-15-129.51-43.74v6.2q.25,87.74.45,175.47a205.43,205.43,0,0,1-1.456,24.383C730.22,488.23,678.46,544.06,613.58,556.91c-9.43,1.87-19.06,2.75-28.59,4.09Z" transform="translate(-419.601 -49)" fill="#c7cace"/>
</svg>
